<svg width="32" height="32" xmlns="http://www.w3.org/2000/svg" xmlns:xlink="http://www.w3.org/1999/xlink"><g transform="translate(-5307 -1227)"><clipPath id="a" clip-rule="evenodd"><path d="M5307 1227h32v32h-32v-32z" fill="#FFF"/></clipPath><g clip-path="url(#a)"><use xlink:href="#b" transform="translate(5307 1227)" fill="#111"/><use xlink:href="#c" transform="matrix(0 -1 -1 0 5333 1251)" fill="#FFF"/><use xlink:href="#c" transform="matrix(0 -1 1 0 5313 1245.01)" fill="#FFF"/></g></g><defs><path id="b" d="M0 16C0 7.163 7.163 0 16 0s16 7.163 16 16-7.163 16-16 16S0 24.837 0 16z"/><path id="c" fill-rule="evenodd" d="M4.506 0l4.506 4.593L7.995 5.63l-2.77-2.823V10H3.788V2.807L1.017 5.63 0 4.593 4.506 0z"/></defs></svg>